<mxfile host="app.diagrams.net" agent="Mozilla/5.0 (Windows NT 10.0; Win64; x64) AppleWebKit/537.36 (KHTML, like Gecko) Chrome/131.0.0.0 Safari/537.36 Edg/131.0.0.0" version="26.0.2">
  <diagram name="第 1 页" id="BYLMfou5CTJKFt67lV0u">
    <mxGraphModel dx="1722" dy="498" grid="1" gridSize="10" guides="1" tooltips="1" connect="1" arrows="1" fold="1" page="1" pageScale="1" pageWidth="1400" pageHeight="150" math="0" shadow="0">
      <root>
        <mxCell id="0" />
        <mxCell id="1" parent="0" />
        <mxCell id="Ae0JqBP-xcse2WlZujs8-57" value="" style="rounded=1;whiteSpace=wrap;html=1;arcSize=9;fillColor=#e1d5e7;strokeColor=#9673a6;strokeWidth=2;" parent="1" vertex="1">
          <mxGeometry x="384" y="464.5" width="164" height="75" as="geometry" />
        </mxCell>
        <mxCell id="Ae0JqBP-xcse2WlZujs8-32" value="" style="rounded=1;whiteSpace=wrap;html=1;arcSize=9;fillColor=#dae8fc;strokeColor=#6c8ebf;strokeWidth=2;" parent="1" vertex="1">
          <mxGeometry x="101" y="464.5" width="256" height="75" as="geometry" />
        </mxCell>
        <mxCell id="Ae0JqBP-xcse2WlZujs8-10" value="&lt;font color=&quot;#ffffff&quot; face=&quot;Times New Roman&quot; style=&quot;font-size: 18px;&quot;&gt;&lt;b&gt;L.O. 1&lt;/b&gt;&lt;/font&gt;" style="ellipse;whiteSpace=wrap;html=1;aspect=fixed;strokeWidth=2;fillColor=#1398D6;" parent="1" vertex="1">
          <mxGeometry x="116" y="469" width="60" height="60" as="geometry" />
        </mxCell>
        <mxCell id="Ae0JqBP-xcse2WlZujs8-11" value="&lt;b style=&quot;font-family: &amp;quot;Times New Roman&amp;quot;; font-size: 18px;&quot;&gt;&lt;font color=&quot;#ffffff&quot;&gt;L.O. N&lt;/font&gt;&lt;/b&gt;" style="ellipse;whiteSpace=wrap;html=1;aspect=fixed;strokeWidth=2;fillColor=#1398D6;" parent="1" vertex="1">
          <mxGeometry x="292" y="469" width="60" height="60" as="geometry" />
        </mxCell>
        <mxCell id="Ae0JqBP-xcse2WlZujs8-15" style="edgeStyle=orthogonalEdgeStyle;rounded=0;orthogonalLoop=1;jettySize=auto;html=1;strokeWidth=2;entryX=0;entryY=0.5;entryDx=0;entryDy=0;" parent="1" source="Ae0JqBP-xcse2WlZujs8-13" target="Ae0JqBP-xcse2WlZujs8-10" edge="1">
          <mxGeometry relative="1" as="geometry">
            <mxPoint x="119" y="499" as="targetPoint" />
          </mxGeometry>
        </mxCell>
        <mxCell id="Ae0JqBP-xcse2WlZujs8-13" value="&lt;b style=&quot;font-family: &amp;quot;Times New Roman&amp;quot;; font-size: 18px;&quot;&gt;&lt;font color=&quot;#ffffff&quot;&gt;IN&lt;/font&gt;&lt;/b&gt;" style="ellipse;whiteSpace=wrap;html=1;aspect=fixed;strokeWidth=2;fillColor=#136cb7;" parent="1" vertex="1">
          <mxGeometry x="9" y="469" width="60" height="60" as="geometry" />
        </mxCell>
        <mxCell id="Ae0JqBP-xcse2WlZujs8-33" value="" style="rounded=1;whiteSpace=wrap;html=1;arcSize=9;fillColor=#d5e8d4;strokeColor=#82b366;strokeWidth=2;" parent="1" vertex="1">
          <mxGeometry x="849" y="464.5" width="170" height="75" as="geometry" />
        </mxCell>
        <mxCell id="Ae0JqBP-xcse2WlZujs8-35" value="&lt;font face=&quot;Times New Roman&quot; style=&quot;font-size: 18px;&quot;&gt;&lt;b&gt;T.O.1&lt;/b&gt;&lt;/font&gt;" style="ellipse;whiteSpace=wrap;html=1;aspect=fixed;strokeWidth=2;fillColor=#ffcccc;strokeColor=#36393d;" parent="1" vertex="1">
          <mxGeometry x="855" y="469.5" width="60" height="60" as="geometry" />
        </mxCell>
        <mxCell id="Ae0JqBP-xcse2WlZujs8-36" style="rounded=0;orthogonalLoop=1;jettySize=auto;html=1;entryX=1;entryY=0.5;entryDx=0;entryDy=0;exitX=0;exitY=0.5;exitDx=0;exitDy=0;strokeWidth=2;startArrow=classic;startFill=1;dashed=1;endArrow=none;endFill=0;" parent="1" source="Ae0JqBP-xcse2WlZujs8-38" target="Ae0JqBP-xcse2WlZujs8-35" edge="1">
          <mxGeometry relative="1" as="geometry" />
        </mxCell>
        <mxCell id="Ae0JqBP-xcse2WlZujs8-38" value="&lt;b style=&quot;font-family: &amp;quot;Times New Roman&amp;quot;; font-size: 18px;&quot;&gt;P.O.2&lt;/b&gt;" style="ellipse;whiteSpace=wrap;html=1;aspect=fixed;strokeWidth=2;fillColor=#ffcc99;strokeColor=#36393d;" parent="1" vertex="1">
          <mxGeometry x="949" y="469" width="60" height="60" as="geometry" />
        </mxCell>
        <mxCell id="Ae0JqBP-xcse2WlZujs8-47" value="&lt;font face=&quot;Times New Roman&quot; style=&quot;font-size: 18px;&quot;&gt;&lt;b&gt;T.O.1&lt;/b&gt;&lt;/font&gt;" style="ellipse;whiteSpace=wrap;html=1;aspect=fixed;strokeWidth=2;fillColor=#ffcccc;strokeColor=#36393d;" parent="1" vertex="1">
          <mxGeometry x="394" y="469" width="60" height="60" as="geometry" />
        </mxCell>
        <mxCell id="Ae0JqBP-xcse2WlZujs8-48" style="rounded=0;orthogonalLoop=1;jettySize=auto;html=1;entryX=1;entryY=0.5;entryDx=0;entryDy=0;exitX=0;exitY=0.5;exitDx=0;exitDy=0;strokeWidth=2;startArrow=classic;startFill=1;dashed=1;endArrow=none;endFill=0;" parent="1" source="Ae0JqBP-xcse2WlZujs8-50" target="Ae0JqBP-xcse2WlZujs8-47" edge="1">
          <mxGeometry relative="1" as="geometry" />
        </mxCell>
        <mxCell id="Ae0JqBP-xcse2WlZujs8-50" value="&lt;b style=&quot;font-family: &amp;quot;Times New Roman&amp;quot;; font-size: 18px;&quot;&gt;P.O.2&lt;/b&gt;" style="ellipse;whiteSpace=wrap;html=1;aspect=fixed;strokeWidth=2;fillColor=#ffcc99;strokeColor=#36393d;" parent="1" vertex="1">
          <mxGeometry x="478" y="469" width="60" height="60" as="geometry" />
        </mxCell>
        <mxCell id="Ae0JqBP-xcse2WlZujs8-58" value="&lt;p style=&quot;language:zh-CN;margin-top:0pt;margin-bottom:0pt;margin-left:0in;&lt;br/&gt;text-align:center;direction:ltr;unicode-bidi:embed;mso-line-break-override:&lt;br/&gt;none;word-break:normal;punctuation-wrap:hanging&quot;&gt;&lt;span style=&quot;font-size: 12pt; color: black; font-weight: bold;&quot;&gt;&lt;font face=&quot;Times New Roman&quot;&gt;Tech. mapping AIG =&amp;gt; LUT&lt;/font&gt;&lt;/span&gt;&lt;/p&gt;" style="text;whiteSpace=wrap;html=1;" parent="1" vertex="1">
          <mxGeometry x="834" y="545" width="200" height="30" as="geometry" />
        </mxCell>
        <mxCell id="Ae0JqBP-xcse2WlZujs8-59" value="&lt;p style=&quot;language:zh-CN;margin-top:0pt;margin-bottom:0pt;margin-left:0in;&lt;br/&gt;text-align:center;direction:ltr;unicode-bidi:embed;mso-line-break-override:&lt;br/&gt;none;word-break:normal;punctuation-wrap:hanging&quot;&gt;&lt;span style=&quot;font-size:12.0pt;&lt;br/&gt;font-family:&amp;quot;Times New Roman&amp;quot;;mso-ascii-font-family:&amp;quot;Times New Roman&amp;quot;;&lt;br/&gt;mso-fareast-font-family:等线;mso-bidi-font-family:&amp;quot;Times New Roman&amp;quot;;mso-fareast-theme-font:&lt;br/&gt;minor-fareast;color:black;mso-color-index:1;mso-font-kerning:12.0pt;language:&lt;br/&gt;en-US;font-weight:bold;mso-style-textfill-type:solid;mso-style-textfill-fill-themecolor:&lt;br/&gt;text1;mso-style-textfill-fill-color:black;mso-style-textfill-fill-alpha:100.0%&quot;&gt;&lt;font face=&quot;Times New Roman&quot;&gt;Post mapping LUT =&amp;gt; LUT&lt;/font&gt;&lt;/span&gt;&lt;/p&gt;" style="text;whiteSpace=wrap;html=1;" parent="1" vertex="1">
          <mxGeometry x="834" y="568" width="200" height="30" as="geometry" />
        </mxCell>
        <mxCell id="Ae0JqBP-xcse2WlZujs8-60" value="&lt;p style=&quot;language:zh-CN;margin-top:0pt;margin-bottom:0pt;margin-left:0in;&lt;br/&gt;text-align:center;direction:ltr;unicode-bidi:embed;mso-line-break-override:&lt;br/&gt;none;word-break:normal;punctuation-wrap:hanging&quot;&gt;&lt;span style=&quot;font-size: 12pt; color: black; font-weight: bold;&quot;&gt;&lt;font face=&quot;Times New Roman&quot;&gt;Tech. mapping AIG =&amp;gt; STD&lt;/font&gt;&lt;/span&gt;&lt;/p&gt;" style="text;whiteSpace=wrap;html=1;" parent="1" vertex="1">
          <mxGeometry x="365" y="544" width="200" height="30" as="geometry" />
        </mxCell>
        <mxCell id="Ae0JqBP-xcse2WlZujs8-61" value="&lt;p style=&quot;language:zh-CN;margin-top:0pt;margin-bottom:0pt;margin-left:0in;&lt;br/&gt;text-align:center;direction:ltr;unicode-bidi:embed;mso-line-break-override:&lt;br/&gt;none;word-break:normal;punctuation-wrap:hanging&quot;&gt;&lt;span style=&quot;font-size:12.0pt;&lt;br/&gt;font-family:&amp;quot;Times New Roman&amp;quot;;mso-ascii-font-family:&amp;quot;Times New Roman&amp;quot;;&lt;br/&gt;mso-fareast-font-family:等线;mso-bidi-font-family:&amp;quot;Times New Roman&amp;quot;;mso-fareast-theme-font:&lt;br/&gt;minor-fareast;color:black;mso-color-index:1;mso-font-kerning:12.0pt;language:&lt;br/&gt;en-US;font-weight:bold;mso-style-textfill-type:solid;mso-style-textfill-fill-themecolor:&lt;br/&gt;text1;mso-style-textfill-fill-color:black;mso-style-textfill-fill-alpha:100.0%&quot;&gt;&lt;font face=&quot;Times New Roman&quot;&gt;Post mapping STD =&amp;gt; STD&lt;/font&gt;&lt;/span&gt;&lt;/p&gt;" style="text;whiteSpace=wrap;html=1;" parent="1" vertex="1">
          <mxGeometry x="367" y="568" width="200" height="30" as="geometry" />
        </mxCell>
        <mxCell id="pCCU7FPbe3T_Mdn3lP0D-3" value="&lt;b style=&quot;&quot;&gt;&lt;font style=&quot;font-size: 16px;&quot;&gt;......&lt;/font&gt;&lt;/b&gt;" style="text;html=1;align=center;verticalAlign=middle;whiteSpace=wrap;rounded=0;" parent="1" vertex="1">
          <mxGeometry x="248" y="479.57" width="50" height="28.86" as="geometry" />
        </mxCell>
        <mxCell id="pCCU7FPbe3T_Mdn3lP0D-4" value="&lt;b style=&quot;font-family: &amp;quot;Times New Roman&amp;quot;; font-size: 18px;&quot;&gt;&lt;font color=&quot;#ffffff&quot;&gt;L.O. 2&lt;/font&gt;&lt;/b&gt;" style="ellipse;whiteSpace=wrap;html=1;aspect=fixed;strokeWidth=2;fillColor=#1398D6;" parent="1" vertex="1">
          <mxGeometry x="199" y="469" width="60" height="60" as="geometry" />
        </mxCell>
        <mxCell id="pCCU7FPbe3T_Mdn3lP0D-6" value="" style="rounded=1;whiteSpace=wrap;html=1;arcSize=9;fillColor=#dae8fc;strokeColor=#6c8ebf;strokeWidth=2;" parent="1" vertex="1">
          <mxGeometry x="569" y="464.5" width="256" height="75" as="geometry" />
        </mxCell>
        <mxCell id="pCCU7FPbe3T_Mdn3lP0D-7" style="edgeStyle=orthogonalEdgeStyle;rounded=0;orthogonalLoop=1;jettySize=auto;html=1;entryX=0;entryY=0.5;entryDx=0;entryDy=0;" parent="1" source="pCCU7FPbe3T_Mdn3lP0D-8" target="pCCU7FPbe3T_Mdn3lP0D-11" edge="1">
          <mxGeometry relative="1" as="geometry" />
        </mxCell>
        <mxCell id="pCCU7FPbe3T_Mdn3lP0D-8" value="&lt;font color=&quot;#ffffff&quot; face=&quot;Times New Roman&quot; style=&quot;font-size: 18px;&quot;&gt;&lt;b&gt;L.O. 1&lt;/b&gt;&lt;/font&gt;" style="ellipse;whiteSpace=wrap;html=1;aspect=fixed;strokeWidth=2;fillColor=#1398D6;" parent="1" vertex="1">
          <mxGeometry x="589" y="469" width="60" height="60" as="geometry" />
        </mxCell>
        <mxCell id="pCCU7FPbe3T_Mdn3lP0D-9" value="&lt;b style=&quot;font-family: &amp;quot;Times New Roman&amp;quot;; font-size: 18px;&quot;&gt;&lt;font color=&quot;#ffffff&quot;&gt;L.O. N&lt;/font&gt;&lt;/b&gt;" style="ellipse;whiteSpace=wrap;html=1;aspect=fixed;strokeWidth=2;fillColor=#1398D6;" parent="1" vertex="1">
          <mxGeometry x="760" y="469" width="60" height="60" as="geometry" />
        </mxCell>
        <mxCell id="pCCU7FPbe3T_Mdn3lP0D-10" value="&lt;b style=&quot;&quot;&gt;&lt;font style=&quot;font-size: 16px;&quot;&gt;......&lt;/font&gt;&lt;/b&gt;" style="text;html=1;align=center;verticalAlign=middle;whiteSpace=wrap;rounded=0;" parent="1" vertex="1">
          <mxGeometry x="718" y="479.57" width="50" height="28.86" as="geometry" />
        </mxCell>
        <mxCell id="pCCU7FPbe3T_Mdn3lP0D-11" value="&lt;b style=&quot;font-family: &amp;quot;Times New Roman&amp;quot;; font-size: 18px;&quot;&gt;&lt;font color=&quot;#ffffff&quot;&gt;L.O. 2&lt;/font&gt;&lt;/b&gt;" style="ellipse;whiteSpace=wrap;html=1;aspect=fixed;strokeWidth=2;fillColor=#1398D6;" parent="1" vertex="1">
          <mxGeometry x="667" y="469" width="60" height="60" as="geometry" />
        </mxCell>
        <mxCell id="pCCU7FPbe3T_Mdn3lP0D-12" style="edgeStyle=orthogonalEdgeStyle;rounded=0;orthogonalLoop=1;jettySize=auto;html=1;entryX=0;entryY=0.5;entryDx=0;entryDy=0;strokeWidth=2;" parent="1" source="Ae0JqBP-xcse2WlZujs8-50" target="pCCU7FPbe3T_Mdn3lP0D-8" edge="1">
          <mxGeometry relative="1" as="geometry" />
        </mxCell>
        <mxCell id="pCCU7FPbe3T_Mdn3lP0D-14" style="edgeStyle=orthogonalEdgeStyle;rounded=0;orthogonalLoop=1;jettySize=auto;html=1;strokeWidth=2;dashed=1;entryX=0;entryY=0.5;entryDx=0;entryDy=0;exitX=1;exitY=0.5;exitDx=0;exitDy=0;" parent="1" source="Ae0JqBP-xcse2WlZujs8-10" edge="1">
          <mxGeometry relative="1" as="geometry">
            <mxPoint x="151.5" y="498.8" as="sourcePoint" />
            <mxPoint x="198.5" y="498.8" as="targetPoint" />
          </mxGeometry>
        </mxCell>
        <mxCell id="yuHCt1SYs9sluDCAp3Fy-1" value="&lt;b style=&quot;font-family: &amp;quot;Times New Roman&amp;quot;; font-size: 18px;&quot;&gt;&lt;font color=&quot;#ffffff&quot;&gt;OUT&lt;/font&gt;&lt;/b&gt;" style="ellipse;whiteSpace=wrap;html=1;aspect=fixed;strokeWidth=2;fillColor=#136CB7;" parent="1" vertex="1">
          <mxGeometry x="1330" y="469.5" width="60" height="60" as="geometry" />
        </mxCell>
        <mxCell id="75UuPJR5SjxIfkqsgxxV-1" style="edgeStyle=orthogonalEdgeStyle;rounded=0;orthogonalLoop=1;jettySize=auto;html=1;entryX=0;entryY=0.5;entryDx=0;entryDy=0;strokeWidth=2;exitX=1;exitY=0.5;exitDx=0;exitDy=0;" parent="1" source="Ae0JqBP-xcse2WlZujs8-11" target="Ae0JqBP-xcse2WlZujs8-47" edge="1">
          <mxGeometry relative="1" as="geometry">
            <mxPoint x="553" y="509" as="sourcePoint" />
            <mxPoint x="599" y="509" as="targetPoint" />
          </mxGeometry>
        </mxCell>
        <mxCell id="75UuPJR5SjxIfkqsgxxV-2" style="edgeStyle=orthogonalEdgeStyle;rounded=0;orthogonalLoop=1;jettySize=auto;html=1;entryX=0;entryY=0.5;entryDx=0;entryDy=0;strokeWidth=2;exitX=1;exitY=0.5;exitDx=0;exitDy=0;" parent="1" source="pCCU7FPbe3T_Mdn3lP0D-9" target="Ae0JqBP-xcse2WlZujs8-35" edge="1">
          <mxGeometry relative="1" as="geometry">
            <mxPoint x="362" y="509" as="sourcePoint" />
            <mxPoint x="409" y="509" as="targetPoint" />
          </mxGeometry>
        </mxCell>
        <mxCell id="75UuPJR5SjxIfkqsgxxV-4" style="edgeStyle=orthogonalEdgeStyle;rounded=0;orthogonalLoop=1;jettySize=auto;html=1;entryX=0;entryY=0.5;entryDx=0;entryDy=0;strokeWidth=2;exitX=1;exitY=0.5;exitDx=0;exitDy=0;" parent="1" source="Ae0JqBP-xcse2WlZujs8-38" target="yuHCt1SYs9sluDCAp3Fy-1" edge="1">
          <mxGeometry relative="1" as="geometry">
            <mxPoint x="820" y="509" as="sourcePoint" />
            <mxPoint x="865" y="510" as="targetPoint" />
          </mxGeometry>
        </mxCell>
        <mxCell id="75UuPJR5SjxIfkqsgxxV-5" value="" style="rounded=1;whiteSpace=wrap;html=1;arcSize=9;fillColor=#dae8fc;strokeColor=#6c8ebf;strokeWidth=2;" parent="1" vertex="1">
          <mxGeometry x="1041" y="464.5" width="256" height="75" as="geometry" />
        </mxCell>
        <mxCell id="75UuPJR5SjxIfkqsgxxV-6" value="&lt;font color=&quot;#ffffff&quot; face=&quot;Times New Roman&quot; style=&quot;font-size: 18px;&quot;&gt;&lt;b&gt;L.O. 1&lt;/b&gt;&lt;/font&gt;" style="ellipse;whiteSpace=wrap;html=1;aspect=fixed;strokeWidth=2;fillColor=#1398D6;" parent="1" vertex="1">
          <mxGeometry x="1056" y="469" width="60" height="60" as="geometry" />
        </mxCell>
        <mxCell id="75UuPJR5SjxIfkqsgxxV-7" value="&lt;b style=&quot;font-family: &amp;quot;Times New Roman&amp;quot;; font-size: 18px;&quot;&gt;&lt;font color=&quot;#ffffff&quot;&gt;L.O. N&lt;/font&gt;&lt;/b&gt;" style="ellipse;whiteSpace=wrap;html=1;aspect=fixed;strokeWidth=2;fillColor=#1398D6;" parent="1" vertex="1">
          <mxGeometry x="1232" y="469" width="60" height="60" as="geometry" />
        </mxCell>
        <mxCell id="75UuPJR5SjxIfkqsgxxV-8" style="edgeStyle=orthogonalEdgeStyle;rounded=0;orthogonalLoop=1;jettySize=auto;html=1;strokeWidth=2;entryX=0;entryY=0.5;entryDx=0;entryDy=0;" parent="1" target="75UuPJR5SjxIfkqsgxxV-6" edge="1">
          <mxGeometry relative="1" as="geometry">
            <mxPoint x="1059" y="499" as="targetPoint" />
            <mxPoint x="1009" y="499" as="sourcePoint" />
          </mxGeometry>
        </mxCell>
        <mxCell id="75UuPJR5SjxIfkqsgxxV-9" value="&lt;b style=&quot;&quot;&gt;&lt;font style=&quot;font-size: 16px;&quot;&gt;......&lt;/font&gt;&lt;/b&gt;" style="text;html=1;align=center;verticalAlign=middle;whiteSpace=wrap;rounded=0;" parent="1" vertex="1">
          <mxGeometry x="1188" y="479.57" width="52" height="28.86" as="geometry" />
        </mxCell>
        <mxCell id="75UuPJR5SjxIfkqsgxxV-10" value="&lt;b style=&quot;font-family: &amp;quot;Times New Roman&amp;quot;; font-size: 18px;&quot;&gt;&lt;font color=&quot;#ffffff&quot;&gt;L.O. 2&lt;/font&gt;&lt;/b&gt;" style="ellipse;whiteSpace=wrap;html=1;aspect=fixed;strokeWidth=2;fillColor=#1398D6;" parent="1" vertex="1">
          <mxGeometry x="1139" y="469" width="60" height="60" as="geometry" />
        </mxCell>
        <mxCell id="75UuPJR5SjxIfkqsgxxV-11" style="edgeStyle=orthogonalEdgeStyle;rounded=0;orthogonalLoop=1;jettySize=auto;html=1;strokeWidth=2;dashed=1;entryX=0;entryY=0.5;entryDx=0;entryDy=0;exitX=1;exitY=0.5;exitDx=0;exitDy=0;" parent="1" source="75UuPJR5SjxIfkqsgxxV-6" edge="1">
          <mxGeometry relative="1" as="geometry">
            <mxPoint x="1091.5" y="498.8" as="sourcePoint" />
            <mxPoint x="1138.5" y="498.8" as="targetPoint" />
          </mxGeometry>
        </mxCell>
        <mxCell id="uP6F-fHS-fo912nJUHqv-1" value="&lt;p style=&quot;language:zh-CN;margin-top:0pt;margin-bottom:0pt;margin-left:0in;&lt;br/&gt;text-align:center;direction:ltr;unicode-bidi:embed;mso-line-break-override:&lt;br/&gt;none;word-break:normal;punctuation-wrap:hanging&quot;&gt;&lt;span style=&quot;font-size: 12pt; color: black; font-weight: bold;&quot;&gt;&lt;font face=&quot;Times New Roman&quot;&gt;Logic Opt.&amp;nbsp; AIG =&amp;gt; AIG&lt;/font&gt;&lt;/span&gt;&lt;/p&gt;" style="text;whiteSpace=wrap;html=1;" vertex="1" parent="1">
          <mxGeometry x="129" y="544" width="200" height="30" as="geometry" />
        </mxCell>
        <mxCell id="uP6F-fHS-fo912nJUHqv-2" value="&lt;p style=&quot;language:zh-CN;margin-top:0pt;margin-bottom:0pt;margin-left:0in;&lt;br/&gt;text-align:center;direction:ltr;unicode-bidi:embed;mso-line-break-override:&lt;br/&gt;none;word-break:normal;punctuation-wrap:hanging&quot;&gt;&lt;span style=&quot;font-size: 12pt; color: black; font-weight: bold;&quot;&gt;&lt;font face=&quot;Times New Roman&quot;&gt;Logic Opt.&amp;nbsp; AIG =&amp;gt; AIG&lt;/font&gt;&lt;/span&gt;&lt;/p&gt;" style="text;whiteSpace=wrap;html=1;" vertex="1" parent="1">
          <mxGeometry x="600" y="544" width="200" height="30" as="geometry" />
        </mxCell>
        <mxCell id="uP6F-fHS-fo912nJUHqv-3" value="&lt;p style=&quot;language:zh-CN;margin-top:0pt;margin-bottom:0pt;margin-left:0in;&lt;br/&gt;text-align:center;direction:ltr;unicode-bidi:embed;mso-line-break-override:&lt;br/&gt;none;word-break:normal;punctuation-wrap:hanging&quot;&gt;&lt;span style=&quot;font-size: 12pt; color: black; font-weight: bold;&quot;&gt;&lt;font face=&quot;Times New Roman&quot;&gt;Logic Opt.&amp;nbsp; AIG =&amp;gt; AIG&lt;/font&gt;&lt;/span&gt;&lt;/p&gt;" style="text;whiteSpace=wrap;html=1;" vertex="1" parent="1">
          <mxGeometry x="1069" y="539.5" width="200" height="30" as="geometry" />
        </mxCell>
      </root>
    </mxGraphModel>
  </diagram>
</mxfile>
